<svg width="1332" height="1332" viewBox="0 0 1332 1332" fill="none" xmlns="http://www.w3.org/2000/svg">
<g clip-path="url(#clip0_175_2)">
<circle cx="666" cy="666" r="666" fill="black"/>
<path d="M597.059 1069.67C580.894 1013.4 566.437 956.577 550.093 900.346C532.285 839.045 513.976 773.368 493.305 713.248C491.264 707.292 490.057 697.537 482.058 697.524C474.059 697.512 475.048 703.801 473.918 709.949C458.434 794.405 453.298 885.766 441.434 971.402C440.33 979.398 436.851 1012 433.757 1016.35C431.972 1018.87 426.875 1020.75 423.973 1021.97C398.32 1032.74 364.835 1042.68 337.886 1051.43C323.865 1055.99 309.742 1060.3 295.58 1064.41L292.756 1062.63C325.534 918.508 355.103 773.445 378.471 627.38C384.788 587.912 388.678 547.981 395.778 508.629C397.653 498.245 400.105 474.269 407.898 467.774C415.692 461.28 438.148 452.359 448.881 446.198C462.658 438.279 481.416 422.838 494.217 417.075C496.746 415.933 497.452 414.238 499.981 416.459C503.332 419.398 514.503 449.407 517.058 455.914C552.212 545.53 584.22 639.304 616.241 730.267C627.706 762.843 637.349 798.294 649.918 830.086C652.666 837.017 658.687 850.687 667.611 840.714C671.334 836.543 676.829 812.733 678.755 805.661C717.414 664.371 747.278 520.463 789.481 380.174C828.358 358.996 868.417 339.396 908.488 320.4C943.873 303.625 982.417 284.41 1018.51 269.945C1028.98 265.748 1029.59 267.25 1025.61 277.043C1010.93 313.084 987.719 351.821 970.373 387.4C952.129 424.815 933.537 462.383 916.436 500.337C841.608 666.412 790.906 842.062 743.183 1017.67C741.526 1020.07 738.509 1020.92 735.954 1022C718.133 1029.49 695.112 1035.05 676.226 1041.87C654.258 1049.79 631.109 1060.36 609.179 1067.26C605.251 1068.49 601.322 1070.5 597.059 1069.69V1069.67Z" fill="white"/>
<path d="M376.12 510.166C376.12 510.161 376.121 510.157 376.121 510.153V510.166C376.121 510.166 376.12 510.166 376.12 510.166C353.882 695.951 316.058 879.388 274.858 1061.58C272.419 1080.5 280.392 1084.72 297.879 1082.03C314.275 1079.5 339.209 1069.65 355.861 1064.26C379.691 1056.55 407.398 1047.94 430.367 1038.63C450.268 1030.57 450.576 1030.06 454.261 1008.61C466.189 939.208 469.167 868.024 480.312 798.483C480.992 794.273 484.023 771.683 487.309 770.798C489.62 771.016 490.866 771.593 492.073 773.621C498.004 783.556 504.758 811.113 508.712 823.627C534.596 905.657 552.854 993.039 579.636 1073.61C583.296 1084.62 585.145 1093.64 599.589 1089.71C628.926 1079.05 657.866 1066.94 687.422 1056.88C697.128 1053.58 717.427 1045.32 726.338 1044.33C729.252 1044.01 733.63 1045.14 734.979 1047.95C737.508 1053.24 730.832 1078.87 724.515 1082.42L636.476 1103.51L605.918 1109.56C593.439 1114.09 576.594 1113.52 568.441 1101.48C564.216 1095.25 561.418 1082.5 559.068 1074.92C540.644 1015.15 527.085 953.802 508.995 893.939C507.377 888.599 497.067 854.355 495.501 852.866C493.331 850.812 493.344 853.328 492.92 854.727C491.7 858.719 491.212 864.7 490.571 869.09C483.162 920.251 480.877 977.74 470.747 1027.68C468.025 1041.11 463.415 1046.18 450.923 1051.5C426.13 1062.08 393.917 1071.46 367.802 1080.07C348.003 1086.6 301.667 1104.71 283.05 1103.13C258.193 1101.03 252.582 1080.52 255.843 1059.27C261.903 1019.76 274.743 977.252 283.088 937.617C305.801 829.737 328.899 721.51 348.761 613.079C353.781 585.637 356.233 551.316 363.667 525.299C365.311 519.523 368.469 508.704 376.12 510.166Z" fill="white"/>
<path d="M507.993 392.469C506.478 391.249 504.526 390.736 502.613 390.775C495.488 390.903 475.908 408.192 468.448 413.146C447.533 427.047 425.488 436.776 404.791 449.624C382.13 463.691 351.38 507.588 331.851 529.446C311.065 552.678 289.007 574.806 267.963 597.781C264.176 607.369 271.725 611.835 280.302 607.536C299.894 591.004 316.175 570.647 334.342 552.473C341.981 547.467 340.505 560.815 340.171 566.001C337.244 611.232 322.954 671.339 313.902 716.866C312.734 722.77 310.05 741.676 307.855 745.476C306.121 748.479 302.873 748.697 301.884 745.501C299.715 738.532 303.412 712.451 304.414 703.517C308.612 665.949 315.635 628.457 320.925 591.042C308.253 602.774 276.039 634.964 260.581 610.95C250.322 595.008 263.726 578.117 273.458 566.052C290.458 544.964 310.23 524.44 328.012 503.789C343.895 485.344 370.472 446.941 389.397 435.518C407.243 424.749 427.221 417.228 445.35 405.458C458.305 397.051 485.653 371.855 498.71 370.238C516.403 368.043 523.156 373.755 530.423 388.67C546.601 421.887 560.852 466.438 573.884 501.812C601.54 576.975 626.615 653.152 654.104 728.379L658.598 732.217L748.845 382.83C756.856 355.863 757.139 354.849 781.842 341.372C841.262 308.937 912.802 273.871 974.854 246.815C989.478 240.436 1033.71 220.67 1046.96 220.041C1067.54 219.052 1081.46 236.239 1076.58 256.108C1070.9 279.147 1039.09 333.645 1026.48 357.467C1004.53 398.963 977.024 454.091 949.817 491.326C947.686 494.239 938.955 505.47 940.047 495.728C940.83 488.771 954.131 462.857 957.945 454.54C987.09 390.98 1027.66 324.635 1053.01 260.78C1066.95 225.662 1028.78 245.801 1012.73 252.604C932.805 286.514 853.549 327.6 776.167 366.516C773.239 369.943 772.392 373.935 770.967 378.004C761.119 406.036 753.788 440.627 746.02 469.865C718.159 574.652 693.687 680.555 664.375 784.854C660.677 789.693 654.617 787.883 652.833 782.313C608.691 665.037 572.176 542.5 524.427 426.79C521.564 419.846 512.59 396.178 508.032 392.507L507.993 392.469Z" fill="white"/>
<path d="M764.352 1071.95C797.146 1044.73 793.657 837.502 998.793 411.186C1005.54 393.277 976.047 422.768 954.835 460.725C915.454 531.197 840.406 723.075 753.886 1034.27C741.102 1040.08 718.301 1046.13 718.301 1046.13C715.277 1052.18 714.533 1068.6 721.79 1083.11C729.465 1081.02 758.746 1076.6 764.352 1071.95Z" fill="white"/>
</g>
<defs>
<clipPath id="clip0_175_2">
<rect width="1332" height="1332" fill="white"/>
</clipPath>
</defs>
</svg>
