<svg width="1641.29" height="767.43" viewBox="423.651 504.337 1641.29 767.43" fill="none" xmlns="http://www.w3.org/2000/svg">
<g clip-path="url(#clip0_139_21)">
<path d="M672.121 1113.88C660.538 1073.56 650.178 1032.84 638.466 992.549C625.704 948.621 612.584 901.556 597.771 858.474C596.309 854.207 595.444 847.216 589.712 847.207C583.98 847.198 584.688 851.705 583.879 856.11C572.783 916.631 569.103 982.1 560.601 1043.47C559.81 1049.2 557.317 1072.56 555.099 1075.68C553.82 1077.48 550.168 1078.83 548.088 1079.71C529.706 1087.42 505.711 1094.54 486.399 1100.81C476.352 1104.08 466.231 1107.17 456.083 1110.11L454.059 1108.84C477.548 1005.56 498.737 901.611 515.482 796.942C520.008 768.659 522.796 740.045 527.884 711.845C529.227 704.404 530.985 687.223 536.569 682.569C542.154 677.915 558.246 671.522 565.938 667.108C575.81 661.433 589.252 650.368 598.425 646.238C600.237 645.419 600.743 644.205 602.556 645.797C604.957 647.903 612.962 669.407 614.793 674.07C639.984 738.288 662.921 805.486 685.867 870.67C694.083 894.014 700.993 919.418 710 942.201C711.969 947.167 716.284 956.963 722.678 949.816C725.347 946.827 729.284 929.765 730.665 924.697C758.367 823.45 779.768 720.325 810.01 619.795C837.87 604.619 866.575 590.574 895.29 576.961C920.647 564.94 948.267 551.171 974.13 540.805C981.638 537.797 982.07 538.874 979.218 545.891C968.702 571.718 952.067 599.477 939.637 624.973C926.563 651.784 913.241 678.706 900.985 705.903C847.365 824.912 811.032 950.782 776.833 1076.62C775.646 1078.34 773.484 1078.95 771.653 1079.72C758.883 1085.1 742.386 1089.08 728.852 1093.96C713.11 1099.64 696.521 1107.22 680.807 1112.16C677.991 1113.04 675.176 1114.48 672.121 1113.9V1113.88Z" fill="black"/>
<path d="M1726.43 644.875C1728.02 646.475 1717.07 677.656 1715.41 682.144C1711.6 692.455 1711.19 701.753 1699.6 704.973C1667.73 713.821 1630.15 715.789 1598.54 727.185C1586.95 731.361 1598.39 746.482 1601.33 754.778C1634.45 848.088 1640.44 983.947 1602.92 1076.48C1599.9 1083.94 1594.33 1098.72 1586.35 1101.31C1578.96 1103.7 1567.57 1100.33 1559.89 1098.81C1469.5 1080.72 1391.07 1058.57 1329.42 986.136C1326.53 982.742 1315.35 969.341 1314.48 966.131C1313.08 960.99 1315.54 956.418 1320.74 959.868C1355.14 992.345 1391.65 1023.59 1434.17 1045.15C1437.12 1046.65 1455.3 1055.77 1456.87 1054.18C1456.97 1052.56 1457.13 1051.38 1455.95 1050.04C1454.78 1048.71 1443.39 1043.95 1440.61 1042.39C1405.21 1022.55 1367.89 993.982 1340.47 964.062C1336.79 960.042 1325.24 947.681 1324.53 943.137C1323.47 936.239 1342.37 930.987 1347.82 929.083C1367.99 922.028 1391.04 915.7 1411.76 910.228C1414.99 909.372 1433.62 904.121 1434.78 905.187C1429.13 924.76 1407.21 936.22 1421.15 957.899C1437.54 983.386 1472.99 1016.27 1498.91 1031.92C1506.41 1036.45 1519.97 1046.75 1526.65 1036.12C1530.01 1030.76 1534.08 1017.3 1536.23 1010.74C1557.74 945.115 1557.79 885.486 1549.77 817.359C1547.82 800.794 1540.81 764.233 1531.8 750.713C1528.84 746.279 1525.74 746.721 1520.79 746.988L1404.46 782.445C1393.45 785.747 1397.85 775.73 1399.34 769.062C1403.58 750.106 1409.4 729.659 1414.8 710.933C1416.74 704.191 1423.27 678.281 1427.36 674.74C1430.4 672.109 1443.41 671.18 1448.13 670.665C1505.02 664.402 1562.26 660.437 1619.25 655.02C1654.94 651.626 1690.56 646.227 1726.44 644.912L1726.43 644.875Z" fill="black"/>
<path d="M1959.21 629.251C1947.3 678.293 1938.24 728.016 1927.47 777.334C1924.94 788.969 1921.42 800.457 1919.01 812.101C1915.94 826.937 1910.89 836.493 1930.24 838.02C1956.26 840.062 1990.13 838.618 2016.75 838.066C2020.95 837.974 2031.62 834.194 2030.94 842.058C2025.18 859.285 2021.48 878.867 2014.43 895.533C2011.27 902.983 2010.35 902.027 2002 901.484C1977.43 899.884 1952.2 893.271 1926.58 892.259C1920.41 892.02 1905.91 890.585 1902.69 896.039C1887.15 964.442 1876.5 1034.07 1866.41 1103.51C1863.1 1126.3 1861.78 1151.67 1856.79 1173.91C1855.95 1177.63 1856.24 1182.32 1851.26 1182.7C1840.64 1177.88 1813.29 1169.06 1802.98 1164.09C1795.3 1160.38 1796.41 1157.32 1796.87 1149.06C1797.42 1139.35 1835.77 972.849 1845.13 897.318C1845.18 890.539 1844.02 886.915 1837.19 885.039C1821.45 880.697 1797.11 882.307 1780.21 881.295C1761.89 880.201 1743.43 878.094 1725.08 877.543C1700.88 876.807 1674.21 879.465 1650.48 877.616C1644.85 877.175 1644.25 876.88 1642.79 871.5C1640.95 864.73 1636.93 842.904 1638.28 836.843C1639.12 833.09 1655.12 814.713 1658.78 810.418C1703.37 758.092 1757.72 703.661 1810.13 659.116C1819.21 651.399 1828.96 642.846 1838.98 636.784C1859.12 648.723 1886.65 643.848 1908.76 639.985C1925.73 637.023 1942.26 631.698 1959.19 629.242L1959.21 629.251ZM1863.06 717.025C1861.53 717.025 1859.37 718.138 1858.04 718.965C1845.96 726.443 1830.24 740.387 1818.92 749.75C1798.71 766.462 1777.87 784.802 1758.62 802.6C1753.94 806.923 1742.82 816.074 1739.81 820.591C1735.74 826.689 1738.61 831.122 1745.52 832.272C1760.02 834.672 1777.4 833.679 1792.24 834.313C1807.8 834.976 1827.58 837.698 1842.8 836.181C1847.48 835.712 1852.26 834.442 1853.45 829.347C1857.32 796.971 1867.64 760.401 1869.02 728.117C1869.23 723.426 1869.5 717.052 1863.05 717.034L1863.06 717.025Z" fill="black"/>
<path d="M1130.95 689.208C1131.75 690.569 1131.12 693.853 1130.71 695.481C1093.93 788.782 1055.8 881.706 1025.47 977.408C1026.8 984.72 1034.77 983.561 1040.58 983.386C1071.33 982.457 1103.8 975.384 1134.39 974.161C1141.65 973.867 1145.87 972.533 1146.81 981.05C1147.63 988.574 1148.69 1004.37 1147.77 1011.45C1147.26 1015.43 1143.96 1016.87 1140.4 1017.88C1119.48 1023.79 1093.32 1026.62 1071.35 1031.63C985.833 1051.07 900.544 1077.85 816.727 1103.6C812.945 1104.76 791.536 1112.73 789.824 1111.68C788.242 1110.69 789.328 1109.81 789.558 1108.65C791.894 1096.86 801.831 1075.24 806.864 1063.39C813.212 1048.4 821.796 1027.56 830.16 1014.01C832.423 1010.34 833.821 1007.79 838.357 1006.57C846.969 1004.26 861.11 1003.16 870.467 1001.88C891.224 999.05 913.379 998.452 933.712 995.205C938.331 994.469 942.002 993.89 944.826 989.76C963.706 931.364 989.274 873.078 1005.37 813.901C1007.48 806.119 1011.13 794.586 998.355 797.694C961.148 827.053 927.097 860.321 891.049 890.931C888.482 893.111 881.646 899.54 878.637 896.891C877.616 895.99 866.033 875.884 865.131 873.603C864.616 872.297 863.466 870.31 863.677 868.995C864.147 866.051 881.122 850.875 884.59 847.675C930.805 805.099 979.301 764.528 1024.03 720.342C1041.66 702.931 1057.36 683.662 1073.23 664.659L1077.83 664.613C1084.79 669.304 1128.46 684.894 1130.97 689.208H1130.95Z" fill="black"/>
<path d="M1399.69 675.348C1400.19 675.652 1400.58 678.098 1400.34 678.935C1365.43 771.694 1329.75 864.185 1297.67 958.038C1291.18 977.013 1285.72 998.628 1278.4 1016.96C1275.6 1023.98 1274.46 1024.08 1266.83 1023.86C1251.65 1023.42 1232.61 1021.53 1217.2 1020.12C1214.63 1019.89 1209.43 1019.36 1208.62 1016.74C1209.22 1009.15 1209.09 1001.54 1209.37 993.937C1210.43 964.146 1209.47 935.385 1208.4 905.667C1207.29 874.625 1207.8 839.729 1201.73 809.321C1200.89 805.063 1199.9 796.619 1193.44 798.615C1190.26 799.599 1187.8 808.779 1186.63 812.071C1170.32 857.591 1160.79 906.256 1146.82 952.547C1143.73 956.824 1132.82 955.233 1127.95 955.757C1115.3 957.109 1099.52 960.991 1087.41 961.304C1080.19 961.488 1081.42 958.084 1082.9 953.026C1092.53 920.162 1107.05 885.864 1118.01 852.918C1131.69 811.777 1142.52 768.318 1156.68 727.858C1159.62 719.442 1159.38 716.903 1169.46 715.799C1188.52 713.721 1209.82 715.11 1229.19 714.806C1233.29 714.742 1252.18 712.074 1254.26 714.972C1254.79 715.717 1256.04 725.218 1256.28 727.195C1261.95 772.65 1259.42 819.328 1263.66 864.222C1264.83 876.565 1273.07 875.682 1276.55 865.17C1295.78 803.435 1315.2 741.7 1336.84 680.784C1338.17 679.128 1342.06 678.236 1344.15 677.969C1356.91 676.332 1371.63 676.663 1384.63 676.13C1387.6 676.01 1397.59 674.033 1399.69 675.339V675.348Z" fill="black"/>
<path d="M513.798 712.939C497.863 846.075 470.758 977.528 441.233 1108.09C439.485 1121.65 445.199 1124.67 457.73 1122.74C469.479 1120.93 487.346 1113.87 499.28 1110.01C516.356 1104.48 536.211 1098.31 552.671 1091.64C566.931 1085.87 567.152 1085.5 569.793 1070.13C578.34 1020.4 580.475 969.388 588.461 919.555C588.948 916.539 591.12 900.351 593.475 899.716C595.131 899.872 596.024 900.286 596.888 901.739C601.139 908.858 605.979 928.606 608.812 937.574C627.361 996.356 640.444 1058.97 659.636 1116.71C662.259 1124.6 663.583 1131.06 673.934 1128.25C694.957 1120.61 715.695 1111.93 736.875 1104.72C743.831 1102.36 758.377 1096.44 764.762 1095.73C766.851 1095.5 769.988 1096.31 770.954 1098.32C772.767 1102.11 767.982 1120.48 763.456 1123.03L700.367 1138.14C689.75 1140.82 697.175 1152.26 700.91 1158.23C714.858 1180.52 733.6 1202.32 748.238 1224.96C753.317 1232.82 756.785 1247.84 768.663 1244.11C813.488 1224.33 859.942 1207.92 906.874 1193.74C974.333 1173.35 1137.46 1130.31 1351.78 1129.65C1515.13 1129.14 1711.5 1153.43 1860.17 1226.31C1862.74 1227.57 1869.35 1230.36 1870.91 1232.13C1876.26 1238.2 1870.38 1247.15 1862.55 1244.16C1794.07 1208.52 1717.44 1186.02 1641.82 1170.5C1543.77 1150.36 1418.34 1142.76 1318.25 1143.32C1227.24 1143.82 1052.8 1163.17 932.424 1199.96C889.062 1213.22 842.663 1227.64 800.865 1245.04C783.513 1252.27 759.601 1271.77 745.266 1250.01C739.81 1241.73 735.118 1232.02 729.459 1223.5C717.462 1205.43 703.385 1188.29 691.535 1170.36C685.913 1161.85 679.859 1152.82 678.47 1142.47C669.527 1145.72 657.456 1145.31 651.613 1136.68C648.586 1132.21 646.581 1123.08 644.897 1117.65C631.694 1074.82 621.978 1030.86 609.015 987.958C607.856 984.132 600.468 959.593 599.345 958.526C597.79 957.054 597.799 958.857 597.496 959.86C596.622 962.72 596.272 967.006 595.812 970.152C590.503 1006.81 588.866 1048.01 581.606 1083.8C579.656 1093.42 576.353 1097.05 567.401 1100.87C549.634 1108.45 526.55 1115.17 507.836 1121.34C493.649 1126.02 460.444 1138.99 447.103 1137.86C429.291 1136.36 425.27 1121.66 427.607 1106.43C431.95 1078.12 441.15 1047.66 447.131 1019.26C463.407 941.952 479.958 864.397 494.192 786.695C497.789 767.03 499.546 742.436 504.874 723.792C506.051 719.653 508.315 711.9 513.798 712.948V712.939Z" fill="black"/>
<path d="M1946.57 803.765C1945.54 811.942 1947.24 811.694 1955.03 812.301C1972.9 813.708 1991.53 811.5 2009.3 811.307C2019.19 811.197 2043.47 809.698 2051.16 813.699C2064.94 820.873 2059.23 839.066 2056.27 850.894C2052.32 866.696 2046.51 885.514 2040.86 900.791C2035.66 914.845 2031.11 929.111 2013.02 929.148C1988.8 929.203 1958.42 919.086 1932.97 918.046C1928.98 917.881 1926.5 917.476 1924.45 921.468C1921.86 926.508 1919.42 943.432 1918.08 950.054C1901.77 1030.77 1895.35 1112.79 1880.73 1193.24C1879.54 1199.76 1877.89 1224.14 1867.22 1219.25C1862.92 1217.28 1863.27 1212.3 1863.63 1208.33C1865.11 1192.18 1870.16 1173.19 1872.57 1156.57C1883.7 1079.68 1891.57 996.833 1909.81 921.551C1913.18 907.644 1912.65 904.756 1928.42 905.133C1937.99 905.363 1949.86 906.945 1959.55 908.039C1974.5 909.732 1996.28 915.434 2010.26 915.278C2021.85 915.149 2024.11 905.547 2027.53 896.68C2032.5 883.812 2045.11 846.139 2045.62 833.75C2045.8 829.169 2043.37 825.205 2038.73 824.285C2010.07 825.159 1981.8 826.502 1953.25 825.113C1948.9 824.901 1932.33 826.548 1930.79 821.774L1965 659.426C1967.02 650.09 1974.6 626.866 1972.8 618.864C1971.52 613.18 1965.39 614.174 1960.81 614.771C1947.96 616.445 1931.58 622.562 1917.96 625.284C1900.29 628.825 1862.91 636.294 1847.63 626.462C1843.38 623.721 1843.33 619.113 1835.86 621.394C1808.43 639.164 1782.33 658.939 1757.26 679.854C1750.39 685.584 1743.82 692.565 1736.97 698.203C1734.42 700.301 1722.64 711.329 1721.77 705.102C1721.16 700.77 1733.25 670.5 1735.35 663.473C1737.45 656.446 1746.65 632.983 1735.1 631.143C1648.28 638.088 1561.49 647.359 1474.78 655.913C1460.53 657.32 1435.51 656.878 1423 661.174C1420.37 662.075 1416.71 665.037 1414.9 665.129C1411.9 665.285 1407.32 659.702 1403 661.367C1381.29 665.441 1354.62 661.909 1333.5 666.435C1326.3 667.98 1325.11 675.292 1322.74 681.436C1308.04 719.616 1298.49 760.959 1283.89 798.955C1283.12 800.941 1281.15 807.168 1280.25 808.189C1274.4 814.821 1274.04 800.408 1273.76 797.088C1271.45 769.476 1272.6 736.696 1267.22 709.802C1266.03 703.805 1263.33 700.107 1256.72 700.071C1247.64 700.015 1236.48 701.781 1227.32 701.947C1214.44 702.177 1201.48 701.469 1188.6 701.873C1180.51 702.122 1165.61 702.158 1158.34 703.814C1148.71 706.012 1147.97 712.524 1142.66 719.165C1141.77 718.806 1140.84 718.723 1140.32 717.776C1134.69 707.392 1156.2 687.396 1137.27 676.902C1123.4 669.212 1101.75 660.373 1086.67 653.908C1080.07 651.075 1072.01 646.2 1065.77 652.647C1049.33 674.308 1031.46 694.874 1012.02 713.886C984.15 741.138 953.392 769.449 924.134 795.276C917.492 801.135 909.377 809.017 902.476 814.094C891.472 822.179 898.281 810.746 901.657 805.917C925.689 771.601 965.243 740.366 995.439 711.071C1018.26 688.941 1038.35 664.522 1058.89 640.258C1067.02 633.608 1073.61 633.544 1083.28 637.067C1096.36 641.84 1111.91 650.973 1124.99 656.989C1135.88 661.992 1153.04 665.368 1157.99 677.352C1159.22 680.342 1159.73 690.569 1161.19 690.901C1165.67 691.94 1172.2 690.018 1176.63 689.907C1202.44 689.254 1228.21 686.854 1253.92 686.228C1265.93 685.934 1276.4 685.143 1279.76 699.096L1284.78 746.05L1286.83 744.882L1314.05 663.574C1318.64 654.901 1325.73 653.199 1334.93 652.252C1360.45 649.603 1386.64 650.366 1412.2 648.554C1509.52 641.638 1606.66 628.504 1703.86 620.051C1717.32 618.883 1742.65 612.067 1751.65 624.714C1760.81 637.582 1751.62 654.367 1747.59 667.446C1747.19 668.716 1747.69 669.093 1748.94 668.799C1763.59 657.044 1778.17 645.188 1793.28 634.031C1803.46 626.517 1815 617.917 1825.49 611.037C1832.32 606.558 1836.79 603.118 1845.77 606.052C1851.11 607.79 1854.24 615.415 1860.68 616.905C1886.43 622.856 1932.74 606.328 1959.18 601.196C1976.27 597.875 1985.92 602.612 1988.53 620.612C1988.53 620.612 1949.38 781.222 1946.55 803.784L1946.57 803.765Z" fill="black"/>
<path d="M1151.2 1090.31C1343.97 1089.18 1532.72 1104.73 1719.27 1153.77C1755.13 1163.19 1812.35 1177.62 1844.22 1194.41C1851.72 1198.36 1854.81 1204.92 1843.96 1204.8C1739.06 1161.62 1627.08 1134.32 1513.43 1126.83C1318.81 1114.02 1116.97 1121.16 928.541 1173.99C914.032 1178.06 893.082 1186.96 879.3 1189.14C872.271 1190.25 871.636 1189.57 868.195 1184.13C864.754 1178.68 862.205 1172.17 858.967 1166.68C851.257 1153.59 842.378 1141.21 835.275 1127.75C834.263 1124.48 837.134 1121.56 839.894 1120.33C846.454 1117.43 865.122 1115.37 873.2 1114.08C963.605 1099.7 1059.55 1090.84 1151.2 1090.3L1151.2 1090.31Z" fill="black"/>
<path d="M608.297 628.606C607.211 627.732 605.813 627.365 604.442 627.392C599.336 627.484 585.305 639.873 579.959 643.424C564.972 653.385 549.174 660.357 534.343 669.563C518.104 679.644 496.068 711.1 482.074 726.764C467.179 743.412 451.372 759.268 436.292 775.732C433.578 782.603 438.988 785.804 445.134 782.722C459.174 770.876 470.841 756.288 483.859 743.264C489.334 739.677 488.276 749.243 488.036 752.959C485.939 785.371 475.698 828.444 469.212 861.068C468.375 865.299 466.452 878.847 464.879 881.57C463.636 883.722 461.309 883.878 460.6 881.588C459.045 876.594 461.695 857.904 462.413 851.503C465.421 824.581 470.454 797.715 474.245 770.903C465.164 779.31 442.08 802.378 431.002 785.169C423.651 773.745 433.256 761.641 440.23 752.996C452.412 737.884 466.581 723.177 479.323 708.378C490.705 695.161 509.75 667.641 523.311 659.455C536.1 651.738 550.416 646.349 563.407 637.914C572.691 631.89 592.288 613.835 601.645 612.676C614.323 611.103 619.163 615.196 624.37 625.884C635.963 649.687 646.176 681.612 655.514 706.961C675.332 760.823 693.301 815.411 713 869.319L716.22 872.069L780.891 621.699C786.632 602.374 786.834 601.648 804.536 591.99C847.116 568.748 898.382 543.62 942.848 524.231C953.328 519.66 985.024 505.495 994.519 505.045C1009.27 504.337 1019.24 516.652 1015.74 530.89C1011.68 547.4 988.879 586.453 979.844 603.524C964.111 633.26 944.403 672.764 924.907 699.447C923.38 701.535 917.123 709.583 917.905 702.601C918.467 697.616 927.998 679.046 930.731 673.086C951.616 627.539 980.69 579.997 998.852 534.238C1008.84 509.073 981.491 523.504 969.99 528.379C912.716 552.679 855.921 582.121 800.469 610.009C798.372 612.464 797.764 615.325 796.743 618.24C789.686 638.328 784.433 663.116 778.866 684.068C758.901 759.158 741.365 835.048 720.36 909.788C717.71 913.256 713.368 911.959 712.089 907.967C680.457 823.928 654.291 736.118 620.074 653.201C618.022 648.225 611.591 631.264 608.325 628.634L608.297 628.606Z" fill="black"/>
<path d="M1522.87 763.755C1525.6 766.395 1530.72 784.606 1531.84 789.269C1538 814.71 1540.09 847.086 1541.49 873.437C1543.87 918.257 1539.04 961.965 1524.44 1004.46C1523.43 1007.39 1518.12 1021.96 1516.75 1023.21C1513.54 1026.13 1503.06 1019.18 1499.81 1017.2C1480.42 1005.34 1445.66 972.1 1433.46 952.923C1431.53 949.888 1430 947.156 1430.24 943.459C1431.03 931.244 1452.04 910.55 1455.5 897.82C1458.67 886.176 1447.81 887.822 1440.64 889.395C1414.11 895.199 1384.54 904.111 1358.41 912.049C1353.9 913.419 1329.27 922.727 1327.38 921.946C1324.36 920.704 1327.68 915.618 1328.97 913.888C1334.65 906.273 1353.99 900.644 1363.22 897.544C1382.57 891.032 1437.65 873.161 1455.5 874.752C1467.72 875.838 1472.2 886.939 1470.43 898.022C1468.89 907.616 1452.79 927.013 1447.49 936.717C1445.92 939.605 1443.35 943.505 1444.16 946.752C1444.7 948.95 1457.55 963.997 1460.06 966.784C1474.29 982.558 1491.25 996.842 1507.91 1009.99C1510.94 1009.98 1520.89 966.646 1521.9 961.45C1530.94 914.744 1528.77 865.389 1523.08 818.242C1522.48 813.183 1516.14 778.949 1513.76 777.441C1511.68 776.116 1503.75 778.867 1501.01 779.612C1464.87 789.361 1429.7 803.029 1393.59 812.944C1381.61 815.565 1378.27 806.809 1383.19 797.032C1385.73 791.982 1387.8 796.876 1391.11 797.51C1393.52 797.97 1396.64 797.51 1399.11 797.317L1513.65 762.826C1515.99 762.476 1521.15 762.099 1522.87 763.755Z" fill="black"/>
<path d="M1191.87 849.984C1194.41 851.851 1194.39 873.125 1194.6 877.154C1196.45 912.04 1198.26 948.914 1197.45 983.856C1197.18 995.38 1194.47 1010.37 1195.52 1021.56C1196.89 1035.96 1214.69 1032.19 1225.45 1033.03C1239.36 1034.11 1254.91 1036.39 1268.67 1036.73C1276.69 1036.93 1282.81 1037.08 1287.16 1029.39C1292.17 1020.54 1299.54 987.084 1304.19 982.908C1305.04 982.145 1305.84 981.823 1307 981.943C1311.06 982.366 1321.25 997.027 1324.82 1000.84C1335.2 1011.94 1347.29 1023.2 1358.9 1033C1362.85 1036.34 1376.71 1045.43 1378.72 1048.13C1380.89 1051.07 1379.67 1052.89 1376.41 1053.29C1362.03 1055.05 1340.25 1035.58 1329.88 1026.13C1327.09 1023.59 1312.31 1007.57 1311.01 1007.27C1309.71 1006.98 1309.4 1007.96 1308.91 1008.82C1305.28 1017.66 1303.2 1027.3 1299.32 1036.02C1293.12 1049.94 1288.14 1050.91 1273.27 1050.53C1251.81 1049.99 1224.76 1048.09 1203.4 1045.88C1182.04 1043.66 1181.37 1030.17 1181.72 1011.36C1182.15 988.777 1184.81 966.224 1183.64 943.294C1183.54 941.28 1182.6 930.712 1182.23 929.976C1182.03 929.571 1181.08 928.826 1180.84 929.074C1177.03 938.502 1175.4 957.946 1170.2 965.819C1165.98 972.212 1158.24 970.409 1158.68 962.646C1162.93 943.625 1167.77 924.696 1172.82 905.887C1175.07 897.462 1185.52 855.18 1189.11 851.354C1189.75 850.683 1190.91 849.285 1191.86 849.984H1191.87Z" fill="black"/>
<path d="M1812.45 1019.21C1801.22 1059.23 1795.47 1101.28 1782.05 1140.59C1772.11 1147.9 1770.32 1139.07 1771.76 1130.29C1778.06 1092.04 1791.93 1050.34 1800.51 1011.86C1807.67 979.755 1811.95 947.352 1816.63 914.774C1816.6 910.423 1815.77 909.292 1811.56 908.832C1787.21 906.174 1757.88 904.197 1733.37 903.277C1709.59 902.394 1681.86 905.631 1658.82 903.304C1654.79 902.9 1650.52 902.017 1650 897.372C1649.58 893.546 1649.95 890.943 1654.16 890.4C1662.66 889.306 1675.51 890.538 1684.61 890.483C1725.82 890.225 1770.26 891.504 1811.53 895.054C1815.94 895.431 1828.86 896.029 1830.64 899.864C1831.81 902.375 1830.73 911.38 1830.4 914.82C1828.56 933.877 1824.41 953.597 1822.14 972.784C1821.15 981.098 1814.2 1013.03 1812.46 1019.21H1812.45Z" fill="black"/>
<path d="M933.988 979.398C931.651 981.946 925.146 982.691 921.714 983.224C899.274 986.71 867.689 991.474 845.469 992.541C841.614 992.725 834.843 993.811 835.063 988.678C835.284 983.546 838.274 980.354 842.957 979.002C851.588 976.51 868.158 975.434 877.791 974.275C891.408 972.628 905.466 972.343 919 970.402C920.748 970.154 922.929 969.529 924.189 968.232L957.265 869.32C956.621 868.612 953.558 871.114 952.757 871.702C932.801 886.492 915.844 905.844 896.063 920.799C893.551 922.703 887.378 927.035 884.608 927.744C868.544 931.837 855.075 916.743 860.172 901.475C862.822 893.538 868.921 907.555 871.203 909.817C879.714 918.261 888.556 909.578 895.631 903.811C921.99 882.335 946.215 857.832 972.465 836.218C974.277 834.728 980.92 828.951 982.576 829.08C986.79 831.462 984.26 836.779 983.266 840.577C975.841 868.906 962.73 901.595 952.683 929.574C948.056 942.451 943.566 956.256 938.634 968.876C937.687 971.304 935.414 977.853 933.988 979.407V979.398Z" fill="black"/>
<path d="M811.713 1125.22C817.509 1124.66 820.876 1131.11 824.06 1135.37C833.454 1147.95 847.42 1169.71 853.778 1183.84C856.391 1189.65 859.05 1194.05 852.103 1197.85L818.705 1209.59C816.46 1209.73 814.583 1208.56 813.498 1206.64C803.358 1185.85 786.687 1166.63 776.189 1146.44C773.365 1141.01 770.273 1136.61 777.588 1133.48C783.559 1130.92 805.116 1125.86 811.713 1125.23V1125.22Z" fill="black"/>
<path d="M765.231 1228.65C756.491 1214.43 747.281 1200.42 737.749 1186.7C730.932 1176.89 721.566 1166.48 715.466 1156.55C714.454 1154.91 711.482 1150.61 712.613 1148.99C713.828 1147.26 751.412 1139.23 754.145 1139.92C755.635 1140.3 757.291 1141.98 758.368 1143.1C763.217 1148.11 770.54 1160.76 774.745 1167.2C778.839 1173.46 801.114 1208.22 800.838 1212.78C800.644 1215.92 798.077 1217.42 795.676 1218.71C791.83 1220.78 774.018 1228.8 770.522 1229.49C768.544 1229.88 766.878 1230.04 765.231 1228.66V1228.65Z" fill="black"/>
<path d="M1652.83 942.872C1653.03 973.225 1647.86 1004.47 1641.5 1034.1C1638.01 1050.42 1633.78 1066.59 1628.01 1082.24C1626.24 1087.03 1618.83 1107.19 1615.1 1108.87C1611.13 1110.66 1603.4 1108.74 1604.24 1103.59C1604.77 1100.29 1611.01 1090.54 1612.78 1086.33C1631.16 1042.46 1635.29 995.216 1648.3 949.844C1649.2 946.708 1649.42 941.658 1652.83 942.872Z" fill="black"/>
<path d="M1627.1 746.088C1625.11 748.185 1636.06 774.95 1636.3 780.589C1636.47 784.755 1634.37 789.593 1630.04 790.89C1625.71 792.187 1625.84 790.172 1624.57 786.723C1621.27 777.756 1613.31 754.679 1611.84 746.116C1610.19 736.495 1615.49 736.771 1623.18 734.361C1641.62 728.594 1679.64 719.59 1698.39 718.467C1711.22 717.695 1701.14 730.388 1694.2 731.776L1627.1 746.088Z" fill="black"/>
<path d="M1061.24 1049.57C1060.86 1047.49 1061.33 1048.1 1062.41 1047.52C1064.06 1046.62 1067.37 1045.79 1069.33 1045.24C1084.26 1041.09 1101.79 1038.21 1117.17 1035.13C1125.1 1033.54 1152.71 1030.45 1157.41 1026.6C1162.39 1022.51 1160.15 1010.54 1163.35 1008.63C1169.91 1004.71 1172.23 1017.4 1172.55 1021.53C1173.83 1038.24 1165.1 1040.64 1150.84 1043.03C1137.85 1045.2 1121.85 1046.64 1108.61 1047.73C1092.89 1049.01 1077.01 1049.55 1061.24 1049.57Z" fill="black"/>
<path d="M1671.23 773.645C1671.5 776.055 1669.79 777.848 1668.45 779.596C1662.73 787.018 1654.16 794.928 1647.77 802.149C1645.68 804.503 1635.9 819.183 1632.61 816.874C1630.43 811.76 1632.39 809.479 1635.37 805.653C1638.34 801.827 1664.3 775.503 1666.88 774.353C1668.31 773.709 1669.67 773.498 1671.24 773.663L1671.23 773.645Z" fill="black"/>
<path d="M1766.12 819.505C1765.06 817.795 1766.42 812.69 1768.28 811.338C1793.27 790.947 1816.51 766.609 1842.45 747.524C1850.69 741.472 1854.29 738.069 1853.38 752.022C1852.3 768.725 1847.59 794.929 1843.91 811.522C1842.05 819.919 1843.33 822.412 1833.6 823.295C1825.74 824.012 1818.14 822.577 1810.66 822.357C1805.12 822.191 1767.49 821.694 1766.12 819.505ZM1835 772.726C1833.87 771.457 1824 779.882 1822.61 781.022C1814.84 787.369 1803.07 796.64 1796.32 803.492C1795.63 804.191 1793.31 807.263 1793.61 807.659C1800.31 808.698 1823.83 811.678 1828.52 808.091C1832.42 805.102 1834.57 778.732 1835 772.726Z" fill="black"/>
</g>
<defs>
<clipPath id="clip0_139_21">
<rect width="1641.29" height="767.43" fill="white" transform="translate(423.651 504.337)"/>
</clipPath>
</defs>
</svg>
